<?xml version="1.0" encoding="UTF-8"?>
<svg xmlns="http://www.w3.org/2000/svg" xmlns:xlink="http://www.w3.org/1999/xlink" width="70px" height="70px" viewBox="0 0 70 70" version="1.1">
<g id="surface1">
<path style=" stroke:none;fill-rule:nonzero;fill:rgb(0%,0%,0%);fill-opacity:1;" d="M 21.671875 29.988281 L 9.316406 29.988281 C 4.5625 29.988281 0.699219 26.125 0.699219 21.371094 L 0.699219 8.882812 C 0.699219 4.128906 4.5625 0.265625 9.316406 0.265625 L 21.671875 0.265625 C 26.425781 0.265625 30.289062 4.128906 30.289062 8.882812 L 30.289062 21.371094 C 30.289062 26.125 26.425781 29.988281 21.671875 29.988281 Z M 9.316406 4.4375 C 6.867188 4.4375 4.871094 6.433594 4.871094 8.882812 L 4.871094 21.371094 C 4.871094 23.820312 6.867188 25.816406 9.316406 25.816406 L 21.671875 25.816406 C 24.121094 25.816406 26.117188 23.820312 26.117188 21.371094 L 26.117188 8.882812 C 26.117188 6.433594 24.121094 4.4375 21.671875 4.4375 Z M 9.316406 4.4375 "/>
<path style=" stroke:none;fill-rule:nonzero;fill:rgb(0%,0%,0%);fill-opacity:1;" d="M 21.671875 64.042969 L 9.316406 64.042969 C 4.5625 64.042969 0.699219 60.171875 0.699219 55.417969 L 0.699219 42.929688 C 0.699219 38.179688 4.5625 34.3125 9.316406 34.3125 L 21.671875 34.3125 C 26.425781 34.3125 30.289062 38.179688 30.289062 42.929688 L 30.289062 55.417969 C 30.289062 60.171875 26.425781 64.042969 21.671875 64.042969 Z M 9.316406 38.484375 C 6.867188 38.484375 4.871094 40.480469 4.871094 42.929688 L 4.871094 55.417969 C 4.871094 57.867188 6.867188 59.863281 9.316406 59.863281 L 21.671875 59.863281 C 24.121094 59.863281 26.117188 57.867188 26.117188 55.417969 L 26.117188 42.929688 C 26.117188 40.480469 24.121094 38.484375 21.671875 38.484375 Z M 9.316406 38.484375 "/>
<path style=" stroke:none;fill-rule:nonzero;fill:rgb(0%,0%,0%);fill-opacity:1;" d="M 55.355469 29.988281 L 43 29.988281 C 38.246094 29.988281 34.382812 26.125 34.382812 21.371094 L 34.382812 8.882812 C 34.382812 4.128906 38.246094 0.265625 43 0.265625 L 55.355469 0.265625 C 60.109375 0.265625 63.972656 4.128906 63.972656 8.882812 L 63.972656 21.371094 C 63.972656 26.125 60.109375 29.988281 55.355469 29.988281 Z M 43 4.4375 C 40.550781 4.4375 38.554688 6.433594 38.554688 8.882812 L 38.554688 21.371094 C 38.554688 23.820312 40.550781 25.816406 43 25.816406 L 55.355469 25.816406 C 57.804688 25.816406 59.800781 23.820312 59.800781 21.371094 L 59.800781 8.882812 C 59.800781 6.433594 57.804688 4.4375 55.355469 4.4375 Z M 43 4.4375 "/>
<path style=" stroke:none;fill-rule:nonzero;fill:rgb(0%,0%,0%);fill-opacity:1;" d="M 50.121094 64.042969 C 41.921875 64.042969 35.257812 57.371094 35.257812 49.183594 C 35.257812 40.992188 41.921875 34.3125 50.121094 34.3125 C 58.316406 34.3125 64.980469 40.984375 64.980469 49.175781 C 64.980469 57.363281 58.316406 64.042969 50.121094 64.042969 Z M 50.121094 38.484375 C 44.226562 38.484375 39.429688 43.28125 39.429688 49.175781 C 39.429688 55.070312 44.226562 59.863281 50.121094 59.863281 C 56.015625 59.863281 60.808594 55.070312 60.808594 49.175781 C 60.808594 43.28125 56.015625 38.484375 50.121094 38.484375 Z M 50.121094 38.484375 "/>
<path style=" stroke:none;fill-rule:nonzero;fill:rgb(0%,0%,0%);fill-opacity:1;" d="M 67.214844 69.734375 C 66.683594 69.734375 66.144531 69.53125 65.738281 69.125 L 56.960938 60.347656 C 56.148438 59.535156 56.148438 58.210938 56.960938 57.394531 C 57.769531 56.582031 59.09375 56.582031 59.914062 57.394531 L 68.691406 66.171875 C 69.503906 66.984375 69.503906 68.304688 68.691406 69.125 C 68.277344 69.53125 67.746094 69.734375 67.214844 69.734375 Z M 67.214844 69.734375 "/>
</g>
</svg>
